<svg class="svg-icon" style="width: 1.251953125em; height: 1em;vertical-align: middle;fill: currentColor;overflow: hidden;" viewBox="0 0 1282 1024" version="1.1" xmlns="http://www.w3.org/2000/svg"><path d="M636.74180615 78.77257138L147.76729209 902.46011416a34.22840273 34.22840273 0 0 0 29.44278281 51.70713399h977.94902813a34.22840273 34.22840273 0 0 0 29.51755752-51.70713399L695.62737178 78.77257138a34.22840273 34.22840273 0 0 0-58.88556563 0z" fill="#FFA471" /><path d="M778.31018193 500.24366563H466.51578945a7.83271494 7.83271494 0 1 1 0-15.64673643h311.79439248a7.83271494 7.83271494 0 1 1 0 15.64673643z" fill="#C1272D" /><path d="M622.40363896 641.75595928a7.83271494 7.83271494 0 0 1-7.83271493-7.83271495v-141.51229365a7.83271494 7.83271494 0 0 1 15.64673554 0v141.51229365a7.83271494 7.83271494 0 0 1-7.81402061 7.83271494z" fill="#C1272D" /><path d="M815.64176094 620.03372891a7.83271494 7.83271494 0 0 1-7.83271495-7.83271495v-69.27933427h-370.88558964v69.29802773a7.83271494 7.83271494 0 0 1-15.64673555 0v-77.13074268a7.83271494 7.83271494 0 0 1 7.83271494-7.83271494h386.5323252a7.83271494 7.83271494 0 0 1 7.83271406 7.83271494v77.13074268a7.83271494 7.83271494 0 0 1-7.83271406 7.81402149z" fill="#C1272D" /><path d="M583.14659521 581.46835713h-107.78862392a7.83271494 7.83271494 0 1 1 0-15.64673555h107.78862392a7.83271494 7.83271494 0 1 1 0 15.64673555zM769.44930664 581.46835713h-107.76993047a7.83271494 7.83271494 0 1 1 0-15.64673555h107.78862393a7.83271494 7.83271494 0 1 1 0 15.64673555zM769.44930664 624.52024737h-107.76993047a7.83271494 7.83271494 0 1 1 0-15.64673555h107.78862393a7.83271494 7.83271494 0 1 1 0 15.64673555zM583.14659521 624.52024737h-107.78862392a7.83271494 7.83271494 0 1 1 0-15.64673555h107.78862392a7.83271494 7.83271494 0 1 1 0 15.64673555zM453.74790342 888.0845583a7.83271494 7.83271494 0 0 1-7.83271494-7.83271494V666.9178543a7.83271494 7.83271494 0 0 1 7.83271494-7.83271495h337.25538896a7.83271494 7.83271494 0 0 1 1e-8 15.64673643H461.63669961v205.63213096a7.83271494 7.83271494 0 0 1-7.88879619 7.72055156z" fill="#C1272D" /><path d="M772.14121807 715.8769956H496.53808086a7.83271494 7.83271494 0 0 1 0-15.64673554h275.60313721a7.83271494 7.83271494 0 0 1 0 15.64673554zM792.10622832 761.54602256H457.26234365a7.83271494 7.83271494 0 1 1 0-15.64673555h334.84388467a7.83271494 7.83271494 0 0 1 0 15.64673555z" fill="#C1272D" /><path d="M522.70944277 888.0845583a7.83271494 7.83271494 0 0 1-7.83271494-7.83271494v-126.53853575a7.83271494 7.83271494 0 1 1 15.64673642 0v116.49994893l103.04039093-26.00311729a7.83271494 7.83271494 0 0 1 3.7387661 15.17939034l-112.77987714 28.45200937a7.8514084 7.8514084 0 0 1-1.81330136 0.24301934zM778.31018193 900.59073067a7.79532715 7.79532715 0 0 1-4.82300859-1.66375108l-177.06795821-138.98862686a7.83271494 7.83271494 0 1 1 9.66470977-12.3192334l177.06795908 138.98862686a7.83271494 7.83271494 0 0 1-4.84170205 13.98298447z" fill="#C1272D" /><path d="M690.67350635 831.03098926a7.83271494 7.83271494 0 0 1-3.47705244-14.84290108l84.57088711-41.74332275a7.83271494 7.83271494 0 0 1 6.93541142 14.0390666l-84.57088711 41.74332188a7.83271494 7.83271494 0 0 1-3.45835898 0.80383535z" fill="#C1272D" /><path d="M1024.11535362 961.99996221H127.2788545a65.14799766 65.14799766 0 0 1-56.08148995-98.42301475l448.46498408-755.3428998a65.14799766 65.14799766 0 0 1 112.05081739 0l448.42759716 755.3428998a65.14799766 65.14799766 0 0 1-56.08149081 98.42301475zM526.39212763 112.21583398l6.72977901 4.00047979L84.69430948 871.57790615a49.50126211 49.50126211 0 0 0 42.56585156 74.77532051h896.85519258a49.50126211 49.50126211 0 0 0 42.56585156-74.77532051L618.25360888 116.21631377a49.50126211 49.50126211 0 0 0-85.13170224 0zM273.78240137 453.97643575a7.83271494 7.83271494 0 0 1-6.69239121-11.85188819l159.88832841-266.01320215a7.83271494 7.83271494 0 0 1 13.42217022 8.05704082l-159.88832842 266.01320215a7.8140206 7.8140206 0 0 1-6.729779 3.79484737z" fill="#C1272D" /><path d="M608.90669316 285.95629092c10.82372783 0 10.84242129-16.82444707 0-16.82444707s-10.84242129 16.82444707 0 16.82444707zM202.52152109 907.91871172c10.82372783 0 10.84242129-16.82444707 0-16.82444708s-10.84242129 16.82444707 0 16.82444708zM375.86940752 713.09161513c10.82372783 0 10.84242129-16.82444707 0-16.82444706s-10.84242129 16.82444707 0 16.82444706zM955.6772416 881.69126855c10.82372783 0 10.84242129-16.82444707 1e-8-16.82444707s-10.84242129 16.82444707 0 16.82444708z" fill="#996047" /><path d="M622.44102676 298.14466836c7.21581856 0 7.23451201-11.21629834 0-11.21629834s-7.23451201 11.21629834 0 11.21629834zM709.1243167 425.54311982c7.21581856 0 7.23451201-11.21629834 0-11.21629745s-7.23451201 11.21629834 0 11.21629745zM217.92523731 895.74902862c7.21581856 0 7.23451201-11.21629834-1e-8-11.21629834s-7.23451201 11.21629834 0 11.21629834zM880.56543271 803.96232295c7.21581856 0 7.23451201-11.21629834 0-11.21629834s-7.23451201 11.21629834 0 11.21629834zM395.14274668 770.23865323c7.21581856 0 7.23451201-11.21629834 0-11.21629747s-7.23451201 11.21629834 0 11.21629746z" fill="#FFFFFF" /></svg>